<?xml version="1.0" ?><svg xmlns="http://www.w3.org/2000/svg" xmlns:xlink="http://www.w3.org/1999/xlink" version="1.1" viewBox="0 0 512 512" style="enable-background:new 0 0 512 512;" xml:space="preserve"><g id="_x32_0_Pen_Tablet_x2C__Art_and_Design_x2C__Graphic_Designer_x2C__Gadget_x2C__Electronics"><g><g><g><rect x="421.02" y="120.981" style="fill:#FFFFFF;" width="60.014" height="300.041"/><rect x="421.02" y="80.978" style="fill:#FFFFFF;" width="60.014" height="40.003"/><path style="fill:#FFFFFF;" d="M481.034,40.965v40.013H421.02V40.965c0-16.565,13.437-30.002,30.012-30.002      C467.598,10.963,481.034,24.39,481.034,40.965z"/><polygon style="fill:#FFFFFF;" points="481.034,421.022 451.032,501.037 421.02,421.022     "/><path style="fill:#FFFFFF;" d="M351.135,10.963H60.845c-16.505,0-29.883,13.377-29.883,29.883v430.309      c0,16.505,13.377,29.883,29.883,29.883h290.289c16.505,0,29.883-13.377,29.883-29.883V40.845      C381.017,24.34,367.64,10.963,351.135,10.963z"/><rect x="70.966" y="90.978" style="fill:#CDDCF9;" width="270.049" height="330.043"/><rect x="120.979" y="331.015" style="fill:#FFFFFF;" width="40.003" height="40.003"/><rect x="120.979" y="235.999" style="fill:#FFFFFF;" width="40.003" height="40.003"/><rect x="120.979" y="140.982" style="fill:#FFFFFF;" width="40.003" height="40.003"/></g></g><g><g><g id="XMLID_744_"><path style="fill:#487FE9;" d="M351.135,510.998H60.847c-21.969,0-39.843-17.874-39.843-39.843V40.845       c0-21.969,17.874-39.843,39.843-39.843h290.287c21.969,0,39.843,17.874,39.843,39.843v430.309       C390.978,493.124,373.104,510.998,351.135,510.998z M60.847,20.924c-10.985,0-19.922,8.937-19.922,19.922v430.309       c0,10.985,8.937,19.922,19.922,19.922h290.287c10.985,0,19.922-8.937,19.922-19.922V40.845       c0-10.985-8.937-19.922-19.922-19.922H60.847z"/></g><g id="XMLID_742_"><path style="fill:#487FE9;" d="M341.011,430.986H70.971c-5.501,0-9.961-4.46-9.961-9.961V90.975       c0-5.501,4.46-9.961,9.961-9.961h270.04c5.501,0,9.961,4.46,9.961,9.961v330.051       C350.972,426.526,346.512,430.986,341.011,430.986z M80.932,411.065H331.05V100.935H80.932V411.065z"/></g><g id="XMLID_741_"><path style="fill:#487FE9;" d="M225.994,470.992h-40.007c-5.501,0-9.961-4.46-9.961-9.961s4.46-9.961,9.961-9.961h40.007       c5.501,0,9.961,4.46,9.961,9.961S231.495,470.992,225.994,470.992z"/></g><g id="XMLID_732_"><path style="fill:#487FE9;" d="M160.984,190.95h-40.006c-5.501,0-9.961-4.46-9.961-9.961v-40.007       c0-5.501,4.46-9.961,9.961-9.961h40.006c5.501,0,9.961,4.46,9.961,9.961v40.007C170.945,186.49,166.485,190.95,160.984,190.95z        M130.939,171.028h20.084v-20.085h-20.084V171.028z"/></g><g id="XMLID_727_"><path style="fill:#487FE9;" d="M160.984,285.964h-40.006c-5.501,0-9.961-4.46-9.961-9.961v-40.007       c0-5.501,4.46-9.961,9.961-9.961h40.006c5.501,0,9.961,4.46,9.961,9.961v40.007       C170.945,281.504,166.485,285.964,160.984,285.964z M130.939,266.043h20.084v-20.085h-20.084V266.043z"/></g><g id="XMLID_726_"><path style="fill:#487FE9;" d="M160.984,380.979h-40.006c-5.501,0-9.961-4.46-9.961-9.961v-40.007       c0-5.501,4.46-9.961,9.961-9.961h40.006c5.501,0,9.961,4.46,9.961,9.961v40.007       C170.945,376.519,166.485,380.979,160.984,380.979z M130.939,361.057h20.084v-20.085h-20.084V361.057z"/></g><g id="XMLID_721_"><path style="fill:#487FE9;" d="M237.073,60.93h-70.165c-5.501,0-9.961-4.46-9.961-9.961s4.46-9.961,9.961-9.961h70.165       c5.501,0,9.961,4.46,9.961,9.961S242.574,60.93,237.073,60.93z"/></g><g id="XMLID_720_"><path style="fill:#487FE9;" d="M291.004,170.947h-80.012c-5.501,0-9.961-4.46-9.961-9.961c0-5.501,4.46-9.961,9.961-9.961       h80.012c5.501,0,9.961,4.46,9.961,9.961C300.965,166.486,296.504,170.947,291.004,170.947z"/></g><g id="XMLID_710_"><path style="fill:#487FE9;" d="M291.004,265.961h-80.012c-5.501,0-9.961-4.46-9.961-9.961s4.46-9.961,9.961-9.961h80.012       c5.501,0,9.961,4.46,9.961,9.961S296.504,265.961,291.004,265.961z"/></g><g id="XMLID_709_"><path style="fill:#487FE9;" d="M291.004,360.975h-80.012c-5.501,0-9.961-4.46-9.961-9.961c0-5.501,4.46-9.961,9.961-9.961       h80.012c5.501,0,9.961,4.46,9.961,9.961C300.965,356.515,296.504,360.975,291.004,360.975z"/></g><g id="XMLID_708_"><path style="fill:#487FE9;" d="M481.032,430.986h-60.008c-5.501,0-9.961-4.46-9.961-9.961V40.967       c0-22.036,17.929-39.965,39.965-39.965c22.036,0,39.965,17.929,39.965,39.965v380.058       C490.993,426.526,486.533,430.986,481.032,430.986z M430.985,411.065h40.087V40.967c0-11.052-8.991-20.043-20.043-20.043       s-20.043,8.991-20.043,20.043V411.065z"/></g><g id="XMLID_707_"><path style="fill:#487FE9;" d="M451.028,510.998c-4.153,0-7.868-2.576-9.327-6.464l-30.004-80.012       c-1.932-5.151,0.678-10.892,5.83-12.824c5.153-1.931,10.892,0.678,12.824,5.83l20.678,55.14l20.678-55.14       c1.932-5.151,7.674-7.762,12.824-5.83c5.152,1.932,7.762,7.673,5.83,12.824l-30.004,80.012       C458.897,508.422,455.181,510.998,451.028,510.998z"/></g><g id="XMLID_704_"><path style="fill:#487FE9;" d="M481.032,90.935h-60.008c-5.501,0-9.961-4.46-9.961-9.961s4.46-9.961,9.961-9.961h60.008       c5.501,0,9.961,4.46,9.961,9.961S486.533,90.935,481.032,90.935z"/></g><g id="XMLID_689_"><path style="fill:#487FE9;" d="M481.032,130.941h-60.008c-5.501,0-9.961-4.46-9.961-9.961s4.46-9.961,9.961-9.961h60.008       c5.501,0,9.961,4.46,9.961,9.961S486.533,130.941,481.032,130.941z"/></g></g></g></g></g><g id="Layer_1"/></svg>